<?xml version="1.0" standalone="no"?>
<!DOCTYPE svg PUBLIC "-//W3C//DTD SVG 20010904//EN"
 "http://www.w3.org/TR/2001/REC-SVG-20010904/DTD/svg10.dtd">
<svg version="1.0" xmlns="http://www.w3.org/2000/svg"
 width="500.000000pt" height="500.000000pt" viewBox="0 0 500.000000 500.000000"
 preserveAspectRatio="xMidYMid meet">

<g transform="translate(0.000000,500.000000) scale(0.100000,-0.100000)"
fill="#000000" stroke="none">
<path d="M1690 2605 l0 -415 23 0 c37 -1 391 -1 404 0 6 0 25 24 42 54 l31 54
-21 36 -21 36 -32 -52 -31 -53 -155 0 -155 0 -5 365 c-3 201 -9 371 -13 378
-5 6 -21 12 -38 12 l-29 0 0 -415z"/>
<path d="M1863 3006 c14 -36 445 -787 461 -804 10 -10 50 -13 161 -13 164 2
152 -3 195 77 l23 42 -20 31 -20 32 -34 -53 -34 -53 -107 -3 -106 -3 -74 128
c-41 70 -139 242 -218 381 l-144 252 -44 0 c-34 0 -43 -3 -39 -14z"/>
<path d="M2994 3003 c-6 -10 -29 -52 -51 -93 -23 -41 -69 -124 -103 -185 l-61
-110 22 -43 c12 -24 25 -40 29 -35 14 15 260 464 260 473 0 6 -19 10 -43 10
-29 0 -45 -5 -53 -17z"/>
<path d="M3228 3008 c-8 -7 -32 -44 -53 -83 -89 -166 -318 -565 -324 -565 -6
1 -83 137 -264 468 -96 175 -101 182 -114 160 -8 -13 -59 -106 -114 -208
l-100 -185 21 -42 c12 -24 23 -43 25 -43 2 0 36 60 76 133 40 72 80 144 89
160 l17 27 169 -300 c93 -165 176 -309 185 -321 14 -20 23 -6 195 297 l179
318 3 -316 2 -316 27 -5 c55 -10 53 -27 53 419 l0 414 -28 0 c-16 0 -35 -6
-44 -12z"/>
<path d="M2173 1743 c-54 -10 -80 -92 -48 -152 25 -49 87 -57 125 -16 29 31
18 46 -13 17 -45 -42 -95 -21 -104 44 -10 74 65 118 109 64 10 -13 21 -20 25
-17 7 8 -24 57 -36 57 -5 0 -15 2 -23 4 -7 2 -23 1 -35 -1z"/>
<path d="M2395 1736 c-87 -37 -62 -186 31 -186 52 0 84 36 84 94 0 75 -55 118
-115 92z m81 -41 c20 -31 13 -94 -13 -112 -59 -44 -125 35 -89 106 14 26 23
31 51 31 26 0 39 -6 51 -25z"/>
<path d="M2843 1740 c-57 -24 -72 -133 -23 -172 32 -26 82 -23 110 7 29 31 18
46 -13 17 -36 -34 -73 -28 -96 15 -15 30 -14 64 5 91 20 29 79 31 94 2 6 -11
15 -20 20 -20 30 0 -14 57 -50 64 -14 3 -35 1 -47 -4z"/>
<path d="M3670 1743 c-8 -3 -25 -15 -37 -26 -34 -30 -32 -109 2 -142 48 -49
135 -18 135 48 0 24 -4 27 -35 27 -19 0 -35 -4 -35 -10 0 -5 9 -10 19 -10 28
0 33 -13 15 -38 -34 -50 -104 -12 -104 56 0 67 59 95 107 50 26 -25 40 -19 24
10 -8 15 -67 47 -75 41 -1 0 -8 -3 -16 -6z"/>
<path d="M1230 1645 l0 -95 60 0 c33 0 60 4 60 10 0 6 -20 10 -45 10 l-45 0 0
85 c0 69 -3 85 -15 85 -12 0 -15 -17 -15 -95z"/>
<path d="M1410 1733 c1 -5 11 -46 24 -93 31 -113 48 -117 72 -16 10 42 21 76
24 76 3 0 14 -34 24 -75 23 -95 39 -97 65 -7 31 105 34 122 23 122 -6 0 -18
-26 -27 -57 -29 -105 -30 -105 -50 -20 -25 103 -42 101 -71 -8 -18 -72 -21
-77 -28 -50 -19 82 -38 135 -46 135 -6 0 -10 -3 -10 -7z"/>
<path d="M1720 1645 c0 -81 2 -95 16 -95 14 0 16 10 11 76 -3 41 -2 73 1 69 4
-4 19 -36 33 -73 15 -36 31 -68 37 -70 5 -1 24 32 41 75 l30 78 1 -77 c0 -85
17 -108 22 -30 5 80 -3 142 -17 142 -8 0 -26 -33 -42 -75 -15 -41 -30 -75 -33
-75 -3 0 -18 34 -34 75 -22 56 -33 75 -47 75 -17 0 -19 -9 -19 -95z"/>
<path d="M2606 1657 c-16 -45 -31 -88 -34 -94 -2 -7 1 -13 7 -13 6 0 16 11 21
25 10 27 10 27 57 31 26 2 33 -2 43 -27 7 -16 16 -29 21 -29 13 0 12 4 -23
101 -22 60 -37 89 -48 89 -10 0 -25 -28 -44 -83z m62 14 c7 -21 12 -41 12 -45
0 -9 -48 -7 -54 2 -6 11 15 82 24 82 4 0 12 -17 18 -39z"/>
<path d="M3030 1645 c0 -57 4 -95 10 -95 6 0 10 20 10 45 l0 45 55 0 55 0 0
-45 c0 -25 5 -45 10 -45 6 0 10 38 10 95 0 57 -4 95 -10 95 -5 0 -10 -18 -10
-40 l0 -40 -55 0 -55 0 0 40 c0 22 -4 40 -10 40 -6 0 -10 -38 -10 -95z"/>
<path d="M3270 1645 c0 -57 4 -95 10 -95 6 0 10 38 10 95 0 57 -4 95 -10 95
-6 0 -10 -38 -10 -95z"/>
<path d="M3380 1645 c0 -57 4 -95 10 -95 6 0 10 33 10 78 l0 77 51 -77 c68
-106 79 -103 79 17 0 78 -3 95 -15 95 -12 0 -15 -14 -12 -74 1 -41 0 -73 -3
-71 -3 2 -26 35 -50 74 -25 39 -50 71 -57 71 -10 0 -13 -25 -13 -95z"/>
<path d="M1277 1418 c-57 -20 -42 -113 18 -113 36 0 61 38 51 78 -8 34 -33 47
-69 35z m53 -27 c14 -27 13 -47 -6 -65 -22 -22 -41 -20 -59 8 -22 33 -5 76 29
76 15 0 30 -8 36 -19z"/>
<path d="M3313 1413 c-4 -10 -11 -21 -17 -25 -7 -5 -7 -8 2 -8 7 0 13 -16 14
-42 l1 -43 4 40 c3 22 10 43 16 47 9 6 9 8 0 8 -7 0 -13 6 -13 14 0 8 6 17 13
19 9 4 9 6 -1 6 -7 1 -16 -7 -19 -16z"/>
<path d="M730 1360 c0 -57 1 -60 24 -60 13 0 31 3 40 6 18 7 22 54 5 54 -8 0
-8 5 1 15 20 24 4 45 -35 45 l-35 0 0 -60z m65 30 c0 -9 -11 -16 -27 -18 -23
-3 -28 1 -28 18 0 17 5 21 28 18 16 -2 27 -9 27 -18z m0 -55 c0 -14 -8 -21
-27 -23 -24 -3 -28 0 -28 23 0 23 4 26 28 23 19 -2 27 -9 27 -23z"/>
<path d="M1103 1360 c0 -36 2 -55 4 -42 5 27 15 28 38 2 10 -11 20 -18 23 -15
3 3 -3 14 -13 25 -17 19 -17 21 0 40 10 11 14 20 8 20 -5 0 -18 -10 -29 -21
l-19 -21 -6 38 c-5 31 -6 25 -6 -26z"/>
<path d="M1383 1360 c0 -36 2 -50 4 -32 2 17 2 47 0 65 -2 17 -4 3 -4 -33z"/>
<path d="M1480 1405 c0 -16 -6 -21 -27 -20 -26 0 -28 -3 -28 -40 0 -39 1 -40
35 -40 34 0 34 0 35 48 1 26 -2 53 -7 60 -5 8 -8 6 -8 -8z m-5 -60 c0 -23 -4
-30 -20 -30 -21 0 -31 25 -21 51 11 28 41 12 41 -21z"/>
<path d="M1581 1358 c1 -35 4 -51 6 -35 3 20 10 27 27 27 30 0 49 23 41 50 -5
15 -15 20 -41 20 l-34 0 1 -62z m64 27 c0 -14 -8 -21 -27 -23 -24 -3 -28 0
-28 23 0 23 4 26 28 23 19 -2 27 -9 27 -23z"/>
<path d="M2350 1360 c0 -60 0 -60 29 -60 16 0 36 7 45 15 16 16 12 45 -6 45
-6 0 -5 6 2 15 20 24 4 45 -35 45 l-35 0 0 -60z m65 30 c0 -9 -11 -16 -27 -18
-23 -3 -28 1 -28 18 0 17 5 21 28 18 16 -2 27 -9 27 -18z m0 -55 c0 -14 -8
-21 -27 -23 -24 -3 -28 0 -28 23 0 23 4 26 28 23 19 -2 27 -9 27 -23z"/>
<path d="M2600 1366 c0 -30 5 -58 10 -61 6 -4 10 17 10 54 0 34 -4 61 -10 61
-5 0 -10 -24 -10 -54z"/>
<path d="M2710 1401 c0 -14 -5 -18 -20 -14 -11 3 -27 0 -35 -7 -29 -24 -12
-80 24 -80 11 0 8 5 -7 16 -27 19 -26 57 2 62 23 5 38 -16 31 -45 -3 -12 -1
-25 5 -28 6 -4 10 16 10 54 0 34 -2 61 -5 61 -3 0 -5 -9 -5 -19z"/>
<path d="M2813 1413 c13 -4 17 -15 17 -59 0 -30 5 -54 10 -54 6 0 10 24 10 54
0 44 4 55 18 59 9 3 -3 5 -28 5 -25 0 -37 -2 -27 -5z"/>
<path d="M2912 1360 c0 -36 2 -56 5 -45 2 11 6 30 9 43 3 13 12 22 24 22 15 0
20 -9 23 -42 l4 -43 -1 45 c-1 41 -3 45 -28 48 -15 2 -29 11 -31 20 -3 9 -5
-12 -5 -48z"/>
<path d="M3160 1360 l0 -60 38 1 c30 2 32 3 10 6 -27 4 -28 7 -28 59 0 30 -4
54 -10 54 -6 0 -10 -27 -10 -60z"/>
<path d="M3511 1415 c-1 -5 8 -21 19 -35 11 -14 20 -38 21 -55 1 -30 1 -30 8
5 4 19 15 49 25 65 l18 30 -25 -28 -24 -29 -21 29 c-12 15 -21 24 -21 18z"/>
<path d="M3860 1414 c0 -21 31 -114 38 -114 5 0 14 24 22 53 l14 52 14 -52 c8
-29 18 -53 23 -53 9 0 42 110 35 117 -5 5 -26 -63 -26 -87 0 -27 -18 10 -25
52 -4 22 -12 38 -20 38 -8 0 -16 -16 -20 -38 -10 -60 -22 -70 -29 -26 -7 38
-26 81 -26 58z"/>
<path d="M1778 1399 c-8 -24 7 -92 22 -97 12 -4 13 -2 4 9 -14 18 -16 62 -3
70 6 3 4 10 -5 18 -11 9 -15 9 -18 0z"/>
<path d="M1830 1395 c-8 -10 -9 -15 -2 -15 6 0 12 -17 14 -37 2 -20 9 -38 16
-39 7 -1 8 0 2 3 -12 6 -13 70 -1 75 5 2 3 8 -4 15 -10 10 -16 9 -25 -2z"/>
<path d="M4220 1395 c-8 -10 -9 -15 -2 -15 6 0 12 -17 14 -37 2 -20 9 -38 16
-39 7 -1 8 0 2 3 -12 6 -13 70 -1 75 5 2 3 8 -4 15 -10 10 -16 9 -25 -2z"/>
<path d="M842 1340 c1 -40 2 -41 5 -10 2 19 11 40 20 47 13 10 13 12 -6 10
-18 -1 -21 -7 -19 -47z"/>
<path d="M904 1363 c-4 -14 -2 -33 3 -42 12 -19 41 -27 54 -14 5 5 -2 9 -18 8
-14 0 -28 6 -30 13 -3 8 7 12 31 12 37 0 47 15 24 38 -22 22 -57 14 -64 -15z
m56 2 c0 -9 -9 -15 -25 -15 -24 0 -32 10 -18 23 12 13 43 7 43 -8z"/>
<path d="M1005 1381 c-4 -7 4 -9 23 -5 28 6 30 4 28 -24 -2 -37 -10 -47 -33
-38 -17 7 -17 8 2 23 l20 15 -20 -4 c-12 -2 -20 -11 -20 -23 0 -16 7 -20 33
-21 33 -1 33 0 30 40 -3 36 -6 41 -30 44 -14 2 -29 -2 -33 -7z"/>
<path d="M1686 1381 c-4 -6 5 -9 21 -8 22 2 27 -2 26 -20 -1 -41 -3 -43 -23
-43 -23 0 -27 26 -5 33 11 4 10 4 -2 3 -11 -1 -18 -9 -18 -21 0 -16 7 -20 33
-21 33 -1 33 0 30 40 -3 36 -6 41 -30 44 -14 2 -29 -1 -32 -7z"/>
<path d="M1897 1383 c-11 -11 -8 -58 5 -71 14 -14 44 -16 52 -4 2 4 -7 8 -21
7 -14 0 -28 6 -30 13 -3 8 7 12 31 12 39 0 41 2 26 31 -10 18 -50 26 -63 12z
m53 -18 c0 -9 -9 -15 -25 -15 -24 0 -32 10 -18 23 12 13 43 7 43 -8z"/>
<path d="M1992 1340 c1 -40 2 -41 5 -10 2 19 11 40 20 47 13 10 13 12 -6 10
-18 -1 -21 -7 -19 -47z"/>
<path d="M2063 1345 c0 -27 2 -38 4 -22 2 15 2 37 0 50 -2 12 -4 0 -4 -28z"/>
<path d="M2095 1381 c13 -5 22 -21 26 -47 l7 -39 -2 45 c-1 40 -4 45 -26 47
-22 2 -23 2 -5 -6z"/>
<path d="M2167 1383 c-15 -14 -6 -33 18 -39 31 -8 27 -29 -4 -28 -13 0 -18 -3
-12 -9 14 -14 45 -4 49 16 2 11 -6 20 -22 27 -33 12 -34 34 -1 28 13 -3 22 -1
19 3 -6 11 -38 12 -47 2z"/>
<path d="M2464 1350 c1 -44 2 -45 34 -46 32 -1 32 -1 31 45 l-2 46 -6 -40 c-5
-31 -10 -40 -26 -40 -16 0 -21 9 -26 40 l-7 40 2 -45z"/>
<path d="M2563 1345 c0 -27 2 -38 4 -22 2 15 2 37 0 50 -2 12 -4 0 -4 -28z"/>
<path d="M3014 1363 c-11 -43 31 -82 59 -54 7 7 2 10 -18 8 -15 -1 -30 4 -32
11 -3 8 7 12 31 12 39 0 41 2 26 31 -16 30 -58 25 -66 -8z m56 2 c0 -9 -9 -15
-25 -15 -24 0 -32 10 -18 23 12 13 43 7 43 -8z"/>
<path d="M3263 1345 c0 -27 2 -38 4 -22 2 15 2 37 0 50 -2 12 -4 0 -4 -28z"/>
<path d="M3367 1384 c-4 -4 -7 -22 -7 -41 0 -38 19 -51 53 -35 21 10 20 10 -7
9 -16 -1 -31 4 -33 11 -3 8 6 12 27 12 27 0 31 3 28 23 -2 15 -11 23 -28 25
-14 2 -29 0 -33 -4z m51 -21 c2 -8 -6 -13 -22 -13 -25 0 -33 10 -19 24 10 10
36 3 41 -11z"/>
<path d="M3620 1376 c-28 -35 11 -93 48 -70 35 22 22 84 -18 84 -10 0 -23 -7
-30 -14z m55 -17 c8 -26 -16 -54 -39 -46 -16 6 -22 48 -9 60 14 14 42 6 48
-14z"/>
<path d="M3716 1378 c-4 -10 -4 -30 1 -45 8 -23 16 -28 41 -28 31 -1 32 1 32
42 0 49 -16 60 -18 12 -2 -65 -37 -63 -44 1 -3 27 -6 31 -12 18z"/>
<path d="M4030 1382 c0 -5 12 -7 26 -4 35 6 28 -20 -7 -28 -15 -4 -24 -13 -24
-25 0 -16 7 -20 33 -21 33 -1 33 0 30 40 -3 36 -6 41 -30 44 -16 2 -28 -1 -28
-6z m50 -47 c0 -20 -28 -31 -42 -17 -10 10 8 23 40 31 1 1 2 -6 2 -14z"/>
<path d="M4129 1378 c-1 -7 -3 -25 -5 -40 -1 -16 1 -28 7 -28 5 0 9 16 9 35 0
28 4 35 20 35 19 0 24 -13 21 -52 -1 -9 3 -19 9 -23 11 -7 14 43 4 69 -7 19
-63 22 -65 4z"/>
<path d="M2251 1294 c0 -11 3 -14 6 -6 3 7 2 16 -1 19 -3 4 -6 -2 -5 -13z"/>
</g>
</svg>
